<svg id="Layer_5" enable-background="new 0 0 64 64" height="512" viewBox="0 0 64 64" width="512" xmlns="http://www.w3.org/2000/svg"><g><path d="m46 41c-1.103 0-2-.897-2-2h-2c0 1.858 1.28 3.411 3 3.858v2.142h2v-2h3v-4c0-2.206-1.794-4-4-4-1.103 0-2-.897-2-2v-2h2c1.103 0 2 .897 2 2h2c0-1.858-1.28-3.411-3-3.858v-2.142h-2v2h-3v4c0 2.206 1.794 4 4 4 1.103 0 2 .897 2 2v2z"/><path d="m53.243 20.644c1.721-2.078 2.757-4.742 2.757-7.644 0-6.617-5.383-12-12-12s-12 5.383-12 12c0 3.65 1.643 6.918 4.223 9.121-4.486 3.168-7.223 8.357-7.223 13.879 0 3.049.803 5.987 2.328 8.584-1.246.27-2.519.415-3.793.416-1.124-4.411-4.29-8.039-8.535-9.701v-2.299h2.541c1.9 0 3.549-1.352 3.922-3.215l.422-2.109 2.233-1.117-1.26-6.93 1.032-.688c1.321-.88 2.11-2.353 2.11-3.941 0-5.514-4.486-10-10-10l-.174.015c-.728.129-17.826 3.258-17.826 12.985 0 9.719 5.187 13.561 7 14.606v2.613l-3.495.874c-2.652.663-4.505 3.036-4.505 5.77 0 .199.01.399.03.598l1.066 10.539h1.704l1.671 5.431c.437 1.42 1.359 2.657 2.596 3.482 1.067.711 2.308 1.087 3.59 1.087h21.343c1.654 0 3-1.346 3-3v-1c0-1.067-.563-1.999-1.404-2.531.321.138.645.269.957.425l.211.106h5.236v-4.755c1.613.497 3.288.755 5 .755 9.374 0 17-7.626 17-17 0-6.58-3.867-12.573-9.757-15.356zm-15.714 22.356c-1.628-1.969-2.529-4.433-2.529-7 0-6.065 4.935-11 11-11s11 4.935 11 11-4.935 11-11 11c-1.749 0-3.458-.437-5-1.227v-2.773zm-4.126 10.897c-.459-.544-1.137-.897-1.903-.897h-3.972-1.528c-1.654 0-3-1.346-3-3s1.346-3 3-3h1.528c2.552 0 5.105-.504 7.472-1.459v8.925c-.525-.212-1.057-.402-1.597-.569zm10.597-30.897c-2.62 0-5-1.021-6.785-2.675.76-3.114 3.534-5.325 6.785-5.325s6.025 2.211 6.785 5.325c-1.785 1.654-4.165 2.675-6.785 2.675zm-3-13c0-1.654 1.346-3 3-3s3 1.346 3 3-1.346 3-3 3-3-1.346-3-3zm3-7c5.514 0 10 4.486 10 10 0 2.057-.626 3.971-1.695 5.562-.923-2.25-2.708-4.005-4.925-4.901.989-.914 1.62-2.211 1.62-3.661 0-2.757-2.243-5-5-5s-5 2.243-5 5c0 1.45.631 2.747 1.62 3.661-2.217.896-4.002 2.651-4.925 4.901-1.069-1.591-1.695-3.505-1.695-5.562 0-5.514 4.486-10 10-10zm-13 33c0-5.11 2.659-9.898 6.969-12.643.706.413 1.454.757 2.242 1.02-4.267 2.134-7.211 6.536-7.211 11.623 0 2.606.789 5.122 2.228 7.256-.615.292-1.247.549-1.892.769-1.524-2.399-2.336-5.155-2.336-8.025zm-5.517 9.052c-2.512.263-4.483 2.368-4.483 4.948 0 1.785.948 3.343 2.358 4.227l-.772.773h-8.826l-3.79-13.644c-.436-1.572-1.493-2.847-2.856-3.603l2.637-.659 6.667 5.556 2.138-5.344c3.356 1.417 5.898 4.26 6.927 7.746zm-1.368-18.728-.613 3.068c-.187.932-1.011 1.608-1.961 1.608h-6.541v2h2v2.807l-1.417 3.544-4.583-3.819v-3.229l2-3v-3.921l-.901-.451c-.678-.338-1.099-1.02-1.099-1.778 0-.857.546-1.615 1.359-1.886l1.641-.546v-.721c0-.82.484-1.565 1.234-1.898l6.818-3.03.903.301c.72.24 1.251.853 1.387 1.599l1.54 8.469zm-20.115-8.324c0-7.753 14.827-10.758 16.09-11 4.37.049 7.91 3.619 7.91 8 0 .917-.456 1.769-1.219 2.277l-.313.208-.159-.872c-.267-1.465-1.31-2.667-2.722-3.139l-1.64-.546-7.527 3.345c-1.24.551-2.11 1.678-2.353 2.982l-.342.114c-1.629.545-2.725 2.065-2.725 3.784 0 1.443.761 2.748 2 3.458v2.086l-1.318 1.977c-1.662-1.077-5.682-4.52-5.682-12.674zm-1 23.863c0-1.115.467-2.137 1.234-2.863h.005c1.767 0 3.331 1.189 3.804 2.891l2.53 9.109h-6.669l-.884-8.739c-.013-.132-.02-.265-.02-.398zm31 18.137c0 .551-.449 1-1 1h-21.343c-.886 0-1.743-.26-2.48-.751-.855-.57-1.492-1.424-1.794-2.406l-1.491-4.843h5.236l1.111 4h11.174l1.854-1.854c.094-.093.223-.146.354-.146h.379 1.528 3.972c.276 0 .5.224.5.5s-.224.5-.5.5h-4.5v2h4.5 1.5c.551 0 1 .449 1 1zm5-5h-2v-10h2zm7-4c-1.722 0-3.398-.304-5-.871v-2.129c1.576.656 3.276 1 5 1 7.168 0 13-5.832 13-13 0-5.876-3.921-10.848-9.283-12.452.719-.391 1.39-.858 2.011-1.383 5.567 2.309 9.272 7.789 9.272 13.835 0 8.271-6.729 15-15 15z"/></g></svg>