<svg xmlns="http://www.w3.org/2000/svg" version="1.1" xmlns:xlink="http://www.w3.org/1999/xlink" xmlns:svgjs="http://svgjs.com/svgjs" height="77.41396610462776" width="342"><defs id="SvgjsDefs3741"></defs><g id="SvgjsG3742" rel="mainfill" name="main_text" xmlns:name="main_text" transform="translate(78.06999993324281,-179.50802091497127)" fill="#FFFFFF"><path d="M3.93 200.66L3.93 240L8.47 240L8.47 221.60L26.57 221.60L26.57 217.79L8.47 217.79L8.47 204.53L28.57 204.53L28.57 200.66ZM35.22 209.74L35.22 227.41C35.22 236.07 39.34 240.61 47.69 240.61C52.84 240.61 56.65 238.79 59.61 234.67L60.10 240L63.73 240L63.73 209.74L59.37 209.74L59.37 230.07C56.59 234.61 53.38 236.85 47.69 236.85C42.36 236.85 39.58 233.40 39.58 227.47L39.58 209.74ZM71.60 195.82L71.60 230.74C71.60 236.73 73.59 240.36 79.10 240.36C79.65 240.36 80.13 240.30 80.55 240.24L80.55 236.49C77.16 236.31 75.95 234.92 75.95 231.71L75.95 195.82ZM85.34 195.82L85.34 230.74C85.34 236.73 87.33 240.36 92.84 240.36C93.38 240.36 93.87 240.30 94.29 240.24L94.29 236.49C90.90 236.31 89.69 234.92 89.69 231.71L89.69 195.82ZM97.56 204.53L109.66 204.53L109.66 240L114.20 240L114.20 204.53L126.31 204.53L126.31 200.66L97.56 200.66ZM132.66 209.74L132.66 240L137.02 240L137.02 219.54C139.62 215.61 143.07 213.01 147.61 213.01C150.15 213.01 152.39 213.92 154.09 215.91L157.11 213.13C154.75 210.16 151.91 209.13 148.34 209.13C144.22 209.13 139.56 210.89 136.72 215.31L136.35 209.74ZM165.04 215.25C168.98 213.61 172.24 212.95 176.00 212.95C182.65 212.95 184.77 215.00 184.77 219.66L184.77 221.90C175.69 222.15 169.88 222.87 164.38 224.57C162.44 226.81 161.77 228.86 161.77 231.59C161.77 237.09 164.98 240.61 172.24 240.61C177.27 240.61 182.17 239.15 185.68 235.40C185.98 239.27 187.37 240.61 189.80 240.61C191.13 240.61 192.16 240.36 193.12 240L193.12 236.91C189.98 236.79 189.07 235.82 189.07 232.62L189.07 219.48C189.07 212.22 185.01 209.13 176.30 209.13C171.52 209.13 168.01 209.86 163.89 211.62ZM184.77 232.13C181.20 235.64 177.27 236.79 172.67 236.79C168.37 236.79 166.25 234.92 166.25 231.22C166.25 229.71 166.68 228.38 167.83 227.05C171.94 225.96 176.84 225.23 184.77 225.11ZM223.20 195.82L223.20 212.16C220.06 210.04 217.33 209.13 213.04 209.13C203.78 209.13 196.88 215.49 196.88 224.93C196.88 235.40 203.11 240.61 212.61 240.61C218.97 240.61 222.72 240.12 227.56 238.73L227.56 195.82ZM223.20 235.58C220.06 236.49 217.45 236.73 213.88 236.73C206.68 236.73 201.35 233.16 201.35 224.87C201.35 216.94 206.92 212.89 213.52 212.89C217.39 212.89 220.42 214.22 223.20 216.58ZM263.45 225.84C263.81 224.39 263.93 223.11 263.93 221.54C263.93 214.34 259.52 209.13 250.01 209.13C240.63 209.13 233.61 215.49 233.61 224.93C233.61 234.49 239.60 240.61 250.44 240.61C255.52 240.61 258.79 240.06 262.48 238.37L261.21 234.55C258.12 236.19 254.86 236.79 250.68 236.79C244.08 236.79 238.45 233.46 238.03 225.84ZM238.09 222.15C238.76 216.09 244.08 212.89 249.53 212.89C256.55 212.89 259.76 215.49 259.76 222.15Z" fill="#FFFFFF" style="fill: rgb(255, 255, 255);"></path></g><g id="SvgjsG3743" rel="mainfill" name="symbol" xmlns:name="symbol_mainfill" transform="translate(-10.469011237107207,-5.715971896917984) scale(0.879380291833536)" fill="#FFFFFF"><polygon points="76.5646667,21.8386002 65.037529,28.4960899 76.5657806,35.152462 76.5657806,48.4797363 88.0950089,41.8233643   88.0950089,28.4960899 "></polygon><polygon points="11.9049873,28.4960899 23.4332409,35.1535797 23.4332409,48.4819717 34.9626122,41.824482 34.9626122,28.4960899   23.4319839,21.8408337 "></polygon><polygon points="38.4701424,13.156373 49.9995117,19.8138638 49.9995117,33.1411362 61.5277634,26.4847641 61.5277634,13.156373   49.998394,6.5 "></polygon><polygon points="38.4701424,43.9028511 49.9995117,50.5603409 49.9995117,63.8876152 61.5277634,57.2301254 61.5277634,43.9028511   49.998394,37.246479 "></polygon><polygon points="38.4701424,74.5487595 49.9995117,81.2051392 49.9995117,94.5324097 61.5277634,87.8760376 61.5277634,74.5487595   49.998394,67.8912735 "></polygon><polygon points="65.037529,59.2090454 76.5657806,65.866539 76.5657806,79.192688 88.0950089,72.535202 88.0950089,59.2090454   76.5646667,52.5515556 "></polygon><polygon points="11.9049873,59.2090454 23.4332409,65.866539 23.4332409,79.1938095 34.9626122,72.5363159 34.9626122,59.2090454   23.4319839,52.5526733 "></polygon></g></svg>