<svg xmlns="http://www.w3.org/2000/svg" version="1.1" xmlns:xlink="http://www.w3.org/1999/xlink" xmlns:svgjs="http://svgjs.com/svgjs" height="77.41396610462776" width="77.41396610462776"><defs id="SvgjsDefs3741"></defs><g id="SvgjsG3743" rel="mainfill" name="symbol" xmlns:name="symbol_mainfill" transform="translate(-10.469011237107207,-5.715971896917984) scale(0.879380291833536)" fill="#FFFFFF"><polygon points="76.5646667,21.8386002 65.037529,28.4960899 76.5657806,35.152462 76.5657806,48.4797363 88.0950089,41.8233643   88.0950089,28.4960899 "></polygon><polygon points="11.9049873,28.4960899 23.4332409,35.1535797 23.4332409,48.4819717 34.9626122,41.824482 34.9626122,28.4960899   23.4319839,21.8408337 "></polygon><polygon points="38.4701424,13.156373 49.9995117,19.8138638 49.9995117,33.1411362 61.5277634,26.4847641 61.5277634,13.156373   49.998394,6.5 "></polygon><polygon points="38.4701424,43.9028511 49.9995117,50.5603409 49.9995117,63.8876152 61.5277634,57.2301254 61.5277634,43.9028511   49.998394,37.246479 "></polygon><polygon points="38.4701424,74.5487595 49.9995117,81.2051392 49.9995117,94.5324097 61.5277634,87.8760376 61.5277634,74.5487595   49.998394,67.8912735 "></polygon><polygon points="65.037529,59.2090454 76.5657806,65.866539 76.5657806,79.192688 88.0950089,72.535202 88.0950089,59.2090454   76.5646667,52.5515556 "></polygon><polygon points="11.9049873,59.2090454 23.4332409,65.866539 23.4332409,79.1938095 34.9626122,72.5363159 34.9626122,59.2090454   23.4319839,52.5526733 "></polygon></g></svg>