<?xml version="1.0"?>
<svg xmlns="http://www.w3.org/2000/svg" xmlns:xlink="http://www.w3.org/1999/xlink" version="1.1" id="Capa_1" x="0px" y="0px" viewBox="0 0 512 512" style="enable-background:new 0 0 512 512;" xml:space="preserve" width="512px" height="512px"><g><g>
	<g>
		<path d="M374.016,372c-8.256-30.112-37.536-48.832-65.984-64c-44.224-23.552-86.528-44.384-131.008-68    c-22.304-11.808-43.904-22.88-60-39.008C97.12,181.12,80.864,149.184,76,120c-1.6-9.6-1.984-24.448-1.984-40    c-22.976,19.456-42.432,50.528-55.008,83.008C9.28,188.064,1.536,215.616,0,246.016c0,6.976,0,14.016,0,20.992    c3.904,71.968,33.984,125.632,72,167.008C110.176,475.52,165.792,504.16,236,512c11.36,0,22.688,0,34.016,0    c28.64-4.48,52.672-17.696,71.008-36.992C360.896,454.048,385.728,414.56,374.016,372z" data-original="#000000" class="active-path" data-old_color="#000000" fill="#FFFFFF"/>
	</g>
</g><g>
	<g>
		<path d="M264,0c-4.352,0-8.672,0-12.992,0C224.704,4.416,199.04,11.936,184,29.024C173.44,40.992,165.12,62.304,164,76    c-4.736,58.848,37.44,80.256,76.992,101.024c40.992,21.472,83.328,43.296,125.024,64.992c21.472,11.2,41.024,22.752,56,39.008    c27.264,29.568,44.288,68.096,40.992,124c6.752-6.528,12.864-15.648,17.984-24.992c14.88-27.2,26.912-61.856,30.016-102.016    c-0.16-1.184,0.192-1.792,0.992-2.016c0-13.344,0-26.656,0-40C494.4,95.328,398.656,10.848,264,0z" data-original="#000000" class="active-path" data-old_color="#000000" fill="#FFFFFF"/>
	</g>
</g></g> </svg>
