<svg xmlns="http://www.w3.org/2000/svg" height="36" width="36" viewBox="-4 -4 36 36" id="help_outline_28" x="108"><g fill="none" fill-rule="evenodd"><path d="M0 0h28v28H0z"/><path d="M14 1.167c7.088 0 12.833 5.745 12.833 12.833S21.088 26.833 14 26.833 1.167 21.088 1.167 14 6.912 1.167 14 1.167zm0 2.1C8.072 3.267 3.267 8.072 3.267 14S8.072 24.733 14 24.733 24.733 19.928 24.733 14 19.928 3.267 14 3.267zm-.056 16.07c.612 0 1.108.496 1.108 1.107v.382c0 .611-.496 1.107-1.108 1.107h-.35a1.108 1.108 0 01-1.107-1.107v-.382c0-.611.496-1.107 1.107-1.107zm-.249-12.57c2.296 0 4.155 1.901 4.155 4.249a3.42 3.42 0 01-.966 2.39l-.935.977c-.556.577-.957 1.077-1.126 1.95-.015.08-.027.201-.034.362-.024.553-.48.99-1.034.99h-.01a1.04 1.04 0 01-1.04-1.04v-.002c0-.302.01-.5.028-.593a4.335 4.335 0 011.14-2.198l1.287-1.339c.369-.375.613-.913.613-1.497 0-1.169-.935-2.125-2.078-2.125a2.07 2.07 0 00-1.74.967 4.45 4.45 0 00-.277.552 1.04 1.04 0 01-1.29.561l-.033-.011a1 1 0 01-.62-1.273l.019-.048c.075-.187.147-.352.217-.494.713-1.47 2.056-2.378 3.724-2.378z" fill="#ffffff" fill-rule="nonzero"/></g></svg>